# xmcd CD database file
# Copyright (C) 1993-1998 Ti Kan
#
# Track frame offsets:
#	182
#	10712
#	20405
#	32870
#	42922
#	54540
#	66905
#	79320
#	91282
#	105617
#	121232
#	134050
#	145025
#	155542
#	173780
#	184950
#
# Disc length: 2647 seconds
#
# Revision: 1
# Processed by: cddbd v1.4b41PL1 Copyright (c) Steve Scherf et al.
# Submitted via: CDValet v3.30 - Copyright (c) 1997 Greg Leichner
#
DISCID=d90a5510
DTITLE=Bo Diddley - Chess Masters
DYEAR=1900
DGENRE=
TTITLE0=Mona
TTITLE1=Hey Bo Diddley
TTITLE2=Road Runner
TTITLE3=Bring It To Jerome
TTITLE4=Pretty Things
TTITLE5=Pills
TTITLE6=I'm A Man
TTITLE7=Hush Your Mouth
TTITLE8=Say Man
TTITLE9=Cops And Robbers
TTITLE10=Mumblin Guitar
TTITLE11=Diddley Diddley
TTITLE12=Memphis
TTITLE13=She's Right
TTITLE14=Who Do You Love
TTITLE15=You Can't Judge A Book By It's Cover
EXTD=
EXTT0=
EXTT1=
EXTT2=
EXTT3=
EXTT4=
EXTT5=
EXTT6=
EXTT7=
EXTT8=
EXTT9=
EXTT10=
EXTT11=
EXTT12=
EXTT13=
EXTT14=
EXTT15=
PLAYORDER=
